PathFileType	4	(X/Y/Z)	./resultDataOpenSim/trcMotMarkerGrf/sub09/qtm-04-09.trc
DataRate	CameraRate	NumFrames	NumMarkers	Units	OrigDataRate	OrigDataStartFrame	OrigNumFrames
250.000000	250.000000	13	24	m	250.000000	64	508
Frame#	Time	L.Toe.Tip			R.Toe.Tip			L.Ankle.Lat			R.Ankle.Lat			L.Ankle.Med			R.Ankle.Med			L.Heel			R.Heel			L.Knee.Lat			R.Knee.Lat			L.Knee.Med			R.Knee.Med			L.Thigh.Upper			R.Thigh.Upper			L.ASIS			R.ASIS			V.Sacral			L.Acromium			R.Acromium			C7			L.Elbow			R.Elbow			L.Wrist.Lat			R.Wrist.Lat
		X1	Y1	Z1	X2	Y2	Z2	X3	Y3	Z3	X4	Y4	Z4	X5	Y5	Z5	X6	Y6	Z6	X7	Y7	Z7	X8	Y8	Z8	X9	Y9	Z9	X10	Y10	Z10	X11	Y11	Z11	X12	Y12	Z12	X13	Y13	Z13	X14	Y14	Z14	X15	Y15	Z15	X16	Y16	Z16	X17	Y17	Z17	X18	Y18	Z18	X19	Y19	Z19	X20	Y20	Z20	X21	Y21	Z21	X22	Y22	Z22	X23	Y23	Z23	X24	Y24	Z24

64	0.252	-1.3244614	0.093408211	-0.032138106	-0.62605216	0.039398078	0.095838481	-1.3453444	0.24943832	-0.076819564	-0.77491389	0.052446567	0.12589607	-1.3209861	0.23340693	0.016553866	-0.76346809	0.091962071	0.033565959	-1.4071888	0.29479373	-0.028533817	-0.83921746	0.03254559	0.073826593	-0.97203517	0.42350214	-0.10292847	-0.72018115	0.50397869	0.18764773	-0.9606999	0.40961714	0.022314568	-0.73535307	0.49294241	0.060509238	-0.94466275	0.8303098	-0.12139118	-0.9131164	0.8602382	0.25159158	-0.85254893	0.91575289	-0.068923865	-0.84314948	0.94373382	0.17042446	-1.0154121	0.98823663	0.056027635	-0.83485924	1.3815086	-0.10791836	-0.87834681	1.3886208	0.21851435	-0.92298637	1.4388108	0.049875131	-0.91002116	1.0124519	-0.16409626	-1.0296305	1.054996	0.27896938	-0.68032275	0.87041661	-0.17069333	-0.92908512	0.80602951	0.313427
65	0.256	-1.3110176	0.095689435	-0.033638807	-0.6260812	0.039439321	0.095759773	-1.3326513	0.25174403	-0.076629309	-0.77588932	0.052194299	0.12605569	-1.3077437	0.23507799	0.016491759	-0.76336382	0.091934638	0.033456483	-1.394784	0.29678665	-0.028087469	-0.83914555	0.032223488	0.073418361	-0.95913171	0.42431586	-0.10244498	-0.71708536	0.50361233	0.18769791	-0.9476052	0.41020781	0.022899441	-0.73250845	0.49262952	0.060577883	-0.93817256	0.831287	-0.12103986	-0.90762298	0.8618437	0.25176041	-0.8467158	0.91703711	-0.068664145	-0.83728734	0.94516688	0.17052849	-1.0096502	0.98958654	0.056181077	-0.82934718	1.382771	-0.10804142	-0.87195885	1.389937	0.21853898	-0.9171389	1.4401831	0.050079842	-0.90508787	1.013836	-0.16367924	-1.022383	1.0556702	0.27962812	-0.67758995	0.86892214	-0.17093873	-0.91914899	0.80743808	0.31320205
66	0.26	-1.2972456	0.097738345	-0.035071693	-0.62612302	0.039474548	0.095704535	-1.3196994	0.25373337	-0.0764528	-0.77668598	0.052230372	0.12616783	-1.2949881	0.23637362	0.016740768	-0.7632716	0.091919231	0.033369714	-1.3823097	0.29839651	-0.02770435	-0.83936091	0.031947178	0.073289581	-0.94625971	0.42531117	-0.10193011	-0.71403004	0.50330706	0.18769261	-0.9346483	0.4109417	0.023489134	-0.72990895	0.49232521	0.060818594	-0.93170594	0.83238378	-0.12069432	-0.90234079	0.86344856	0.25188446	-0.84083332	0.91843559	-0.068357718	-0.83148452	0.94662006	0.17065106	-1.0039367	0.9909705	0.056293027	-0.82387739	1.3841017	-0.10815833	-0.86558428	1.3913171	0.21856206	-0.91136658	1.4416079	0.050270157	-0.89984756	1.0152485	-0.1626676	-1.0151522	1.0564163	0.28032262	-0.67497906	0.86749909	-0.17115821	-0.90924588	0.80895436	0.31294369
67	0.264	-1.2831677	0.099562908	-0.036432961	-0.6261768	0.039494413	0.095680444	-1.3065449	0.25542053	-0.076281066	-0.77694384	0.052506653	0.1263566	-1.2827925	0.23736905	0.017281147	-0.76318153	0.091912176	0.033302907	-1.3696537	0.29961488	-0.027423111	-0.83988739	0.031729414	0.073492358	-0.93340073	0.42645925	-0.10139793	-0.71113678	0.50303333	0.1876282	-0.92178757	0.4118605	0.024122262	-0.72752162	0.49205345	0.061209704	-0.92528301	0.83357482	-0.12040473	-0.8970768	0.86504356	0.25200525	-0.83492408	0.91994223	-0.068012991	-0.82569472	0.94808728	0.17080552	-0.99837605	0.99241748	0.05621882	-0.81844431	1.3854961	-0.10826775	-0.85922565	1.3927586	0.2185865	-0.90566094	1.4430996	0.050463636	-0.89441362	1.016723	-0.16121369	-1.0079529	1.0572315	0.28103386	-0.67243095	0.86616065	-0.17133214	-0.89934285	0.81058089	0.31266357
68	0.268	-1.2687786	0.10117971	-0.037712228	-0.62623994	0.039509748	0.095686076	-1.2932354	0.25682718	-0.07611469	-0.77658361	0.052722162	0.12653297	-1.2707085	0.23828777	0.017841393	-0.7630882	0.091913663	0.03325232	-1.3567993	0.3004626	-0.02721497	-0.84051185	0.03155594	0.073841906	-0.92049731	0.42775264	-0.1008513	-0.70852307	0.50277425	0.18755749	-0.90895701	0.41297253	0.024817686	-0.72522677	0.49182917	0.061613065	-0.91880413	0.83485207	-0.1201537	-0.89169212	0.8666289	0.25215702	-0.82905148	0.9215432	-0.067651942	-0.8198341	0.94957049	0.17100694	-0.99310491	0.99393289	0.055782298	-0.81304868	1.3869487	-0.10836528	-0.85289515	1.3942641	0.21861909	-0.89994797	1.4446568	0.050667185	-0.88915008	1.0183196	-0.15987507	-1.0007928	1.0581132	0.28175376	-0.66992076	0.86492008	-0.17145864	-0.88941758	0.81232763	0.31237759
69	0.272	-1.2540114	0.10260825	-0.038909862	-0.62631106	0.039539341	0.095712367	-1.2798028	0.2579673	-0.075959523	-0.7759118	0.052660029	0.12654184	-1.2582311	0.23926152	0.018180263	-0.76299749	0.091927182	0.033213975	-1.3438778	0.30098445	-0.026985868	-0.84097165	0.031439965	0.074089176	-0.90756771	0.42920962	-0.10028069	-0.70622488	0.50252353	0.18756361	-0.89618096	0.41424848	0.025550169	-0.7229641	0.49165381	0.061925269	-0.91214227	0.83622638	-0.11989296	-0.88616295	0.86819768	0.25235316	-0.8232681	0.9232201	-0.067295694	-0.81381766	0.95107276	0.1712732	-0.98810549	0.9954937	0.055009844	-0.80769267	1.388456	-0.10845089	-0.8466116	1.395835	0.21866648	-0.89412261	1.4462293	0.050823841	-0.88427735	1.0200611	-0.15899407	-0.99367108	1.059058	0.28248195	-0.66743969	0.86378715	-0.17153687	-0.87947209	0.81420253	0.31209306
70	0.276	-1.2387924	0.10386872	-0.040033889	-0.62638826	0.039589903	0.095752282	-1.2662642	0.258847	-0.075814093	-0.77528674	0.052461095	0.12634246	-1.2452839	0.24015721	0.01834605	-0.76292153	0.091956097	0.033186389	-1.3310398	0.3012083	-0.026656214	-0.84119263	0.031397402	0.074139349	-0.89476512	0.43083541	-0.09967248	-0.70412685	0.50226508	0.1876787	-0.88357138	0.4156622	0.026282679	-0.72080515	0.49151729	0.062186476	-0.90536453	0.83769739	-0.11963123	-0.88061727	0.8697271	0.25257065	-0.8175832	0.92495555	-0.066952893	-0.80765504	0.95258953	0.17160754	-0.98303398	0.99706427	0.054350699	-0.80237377	1.3900171	-0.10853181	-0.84037985	1.397463	0.21872624	-0.88816958	1.4477621	0.050822238	-0.8797103	1.0219129	-0.15845347	-0.9865787	1.060059	0.28321757	-0.66500461	0.86276234	-0.1715726	-0.86951953	0.81620727	0.31180593
71	0.28	-1.223176	0.10497361	-0.041080733	-0.62647511	0.039651623	0.09580454	-1.2526249	0.25947213	-0.075668978	-0.7748502	0.052459505	0.12595321	-1.2318018	0.2407965	0.018425211	-0.76285404	0.092004475	0.033172843	-1.3182601	0.30111316	-0.02628377	-0.84126794	0.031410276	0.074055166	-0.88219373	0.43261032	-0.099019815	-0.70196768	0.50197276	0.18783255	-0.87119228	0.41722948	0.026992432	-0.71880791	0.49140492	0.062458175	-0.89872952	0.83924314	-0.11944151	-0.8753761	0.8711691	0.25273049	-0.81197508	0.92674226	-0.066618736	-0.80157104	0.9540934	0.17196608	-0.97740338	0.99861973	0.054444489	-0.79708311	1.3916291	-0.10861158	-0.83418573	1.399134	0.2187884	-0.8822137	1.4492714	0.05062319	-0.87523805	1.0238289	-0.15796304	-0.97950716	1.0611073	0.28395884	-0.66265339	0.86183446	-0.17158247	-0.85956711	0.81833884	0.31150773
72	0.284	-1.2073256	0.10591278	-0.042028416	-0.62659451	0.039706285	0.095866443	-1.2388966	0.25985474	-0.07552059	-0.77455395	0.052797305	0.12539657	-1.21743	0.24118287	0.018304537	-0.76277949	0.092074557	0.033179662	-1.3053338	0.3006548	-0.026063101	-0.84129923	0.031443271	0.073929097	-0.86974829	0.43451682	-0.098351682	-0.69953958	0.50164188	0.18791673	-0.85889946	0.41899378	0.027647353	-0.71687877	0.49130801	0.062676393	-0.89239618	0.84085119	-0.11937361	-0.87092575	0.8724525	0.25270879	-0.80641437	0.92858578	-0.0662815	-0.79598265	0.95553225	0.17225977	-0.97109128	1.0001603	0.055461117	-0.79180859	1.3932813	-0.10868285	-0.8280197	1.4008419	0.21884589	-0.87639391	1.4508184	0.050362007	-0.8707221	1.0257891	-0.15734811	-0.97245439	1.0621957	0.28470623	-0.66041637	0.86099108	-0.17158061	-0.84961683	0.82059427	0.31119293
73	0.288	-1.1913665	0.1066501	-0.042836737	-0.62678255	0.039736393	0.095930476	-1.2251183	0.26000044	-0.075368943	-0.77434923	0.053303423	0.12481147	-1.2022877	0.2413707	0.017984474	-0.76272408	0.092156974	0.033212075	-1.2920995	0.29981995	-0.026127397	-0.84133328	0.031473914	0.073815037	-0.85722416	0.43655531	-0.097765299	-0.69694929	0.50131775	0.18790822	-0.8464401	0.42099894	0.028180802	-0.71484816	0.49123037	0.062694398	-0.88625596	0.8425461	-0.11938528	-0.86753084	0.87354323	0.2524413	-0.80086565	0.93049433	-0.065928147	-0.79114747	0.95686853	0.17243039	-0.96457303	1.0017181	0.05679013	-0.78654123	1.394959	-0.10873906	-0.82188585	1.4025876	0.21889966	-0.87072598	1.4524261	0.050227571	-0.86614556	1.0277939	-0.15660333	-0.96542126	1.0633211	0.28546241	-0.6583081	0.86022872	-0.1715708	-0.83967418	0.82296839	0.31086514
74	0.292	-1.1753523	0.10714527	-0.043457171	-0.6270519	0.039739351	0.095993546	-1.2113184	0.25989373	-0.075206074	-0.77426686	0.05372167	0.12441595	-1.187062	0.24133207	0.017701852	-0.76274569	0.092235402	0.033271084	-1.2786588	0.2986472	-0.026338646	-0.84138636	0.031494399	0.073732604	-0.84445854	0.43874563	-0.09741771	-0.69457102	0.50106535	0.18789859	-0.83384924	0.42329238	0.028573841	-0.71267036	0.4911718	0.062467607	-0.88007405	0.84437147	-0.11936393	-0.86464228	0.87453602	0.25205615	-0.79529747	0.93246988	-0.065549187	-0.7867777	0.95812933	0.17253298	-0.95844568	1.0033388	0.05765236	-0.78127843	1.3966524	-0.10878606	-0.8157816	1.4043623	0.21895393	-0.86511926	1.4540687	0.050265187	-0.86156947	1.0298392	-0.15581344	-0.95840683	1.0644822	0.28623101	-0.65634231	0.85954816	-0.17156152	-0.8297448	0.8254458	0.31053116
75	0.296	-1.1592658	0.10739364	-0.043889887	-0.62736247	0.039737482	0.096065534	-1.1974	0.25951992	-0.075040377	-0.77431733	0.053960724	0.12428257	-1.1720654	0.24103056	0.017588717	-0.76286366	0.092303989	0.033351951	-1.2652514	0.29718657	-0.026426492	-0.84146929	0.031499164	0.073686256	-0.83142318	0.44110954	-0.097381842	-0.69273771	0.50092482	0.18801877	-0.82156659	0.42587874	0.028995835	-0.7105011	0.4911089	0.062157068	-0.87370594	0.84634154	-0.11921949	-0.86109308	0.87562257	0.2518195	-0.78970979	0.9345065	-0.065145383	-0.78229091	0.95938275	0.17268854	-0.95282323	1.0050296	0.057880649	-0.77601962	1.3983563	-0.10883288	-0.80969271	1.4061471	0.21900648	-0.85948427	1.4557138	0.05038779	-0.85706452	1.0319103	-0.15506214	-0.95141232	1.0656758	0.28701727	-0.65452241	0.85894533	-0.17157343	-0.8198252	0.82800411	0.31018561
76	0.3	-1.1429807	0.10744456	-0.044225654	-0.62764449	0.039760432	0.096160885	-1.1831708	0.25888857	-0.074904592	-0.77444302	0.054085999	0.1243117	-1.1570707	0.24047787	0.017569104	-0.76304427	0.09236709	0.033443464	-1.2519458	0.29545114	-0.026306904	-0.84158199	0.03148523	0.07367304	-0.81833814	0.44362976	-0.097442772	-0.69151854	0.50090099	0.18833749	-0.80989027	0.42864156	0.029714581	-0.70851102	0.49101209	0.061976377	-0.86718968	0.84841651	-0.11896813	-0.85620118	0.87691457	0.25189115	-0.78412652	0.93658948	-0.064725892	-0.77741564	0.96066318	0.17294908	-0.94741164	1.0067447	0.057831692	-0.77076308	1.4000617	-0.10887945	-0.80361331	1.4079341	0.21905151	-0.85379555	1.4573463	0.050511993	-0.85265822	1.0340025	-0.15438092	-0.94445038	1.0668974	0.28782872	-0.65282534	0.8584119	-0.17162561	-0.8099004	0.83062879	0.30981664
